<?xml version="1.0" encoding="utf-8"?>
<!-- Generator: Adobe Illustrator 19.1.0, SVG Export Plug-In . SVG Version: 6.00 Build 0)  -->
<svg version="1.1" id="Layer_1" xmlns="http://www.w3.org/2000/svg" xmlns:xlink="http://www.w3.org/1999/xlink" x="0px" y="0px"
	 viewBox="166.6 289.4 1024.4 188.5" enable-background="new 166.6 289.4 1024.4 188.5" xml:space="preserve">
<g>
	<g opacity="0.6">
		<polygon fill="#FFFFFF" points="166.6,297.3 256.9,342.1 256.9,432.4 166.6,387.6 		"/>
		<polygon fill="#FFFFFF" points="347.9,297.3 437.5,342.1 347.9,387.6 		"/>
	</g>
	<g>
		<polygon fill="#FFFFFF" points="347.9,297.3 256.9,342.1 256.9,432.4 347.9,387.6 		"/>
		<polygon fill="#FFFFFF" points="437.5,342.1 347.9,387.6 347.9,477.9 437.5,432.4 		"/>
	</g>
</g>
<g>
	<path fill="#FFFFFF" d="M562.8,292.7c5.2,0,8.1,1.2,11.8,4.9l8,8c3.7,3.7,4.9,6.6,4.9,11.8v28.7c0,4.5-1.2,7.6-3,9.9l-2.3,2.4
		c-0.2,0.2-0.3,0.5-0.3,0.7c0,0.2,0.1,0.5,0.3,0.7l6.9,6.9c3.7,3.7,4.9,6.6,4.9,11.8v29.5c0,5.2-1.2,8.2-4.9,11.8l-8,8
		c-3.7,3.7-6.6,4.9-11.8,4.9h-69.9v-134l6.1-6.1H562.8z M562.4,311.4c-0.9-0.9-2.5-1.6-4-1.6h-40.5v44h40.5c1.5,0,3.1-0.7,4-1.6
		l4.9-4.9c1.1-1.1,1.7-2.5,1.7-3.8v-23.4c0-1.3-0.6-2.7-1.7-3.8L562.4,311.4z M568.9,372.5c-0.9-0.9-2.5-1.6-4-1.6h-47v44.8h47
		c1.5,0,3.1-0.7,4-1.6l4.9-4.9c1.1-1.1,1.7-2.5,1.7-3.8v-24.2c0-1.3-0.6-2.7-1.7-3.8L568.9,372.5z"/>
	<path fill="#FFFFFF" d="M692.5,332.8v100h-15.2l-1.7-9.8l-16.2,7.5c-3.5,1.6-6.4,2.3-10.2,2.3H638c-5.1,0-8.1-1.2-11.8-4.9l-8-8
		c-3.6-3.6-4.9-6.6-4.9-11.8v-75.3h17.3V407c0,1.3,0.6,2.7,1.6,3.8l4.9,4.9c0.9,0.9,2.5,1.5,4,1.5h7.3c1.2,0,2.4-0.3,3.3-0.7
		l23.3-10.9v-72.7L692.5,332.8z"/>
	<path fill="#FFFFFF" d="M735,298v19.8h-20V298H735z M733.7,332.7v100.1h-17.3V332.7H733.7z"/>
	<path fill="#FFFFFF" d="M775.2,289.4V407c0,1.4,0.6,2.8,1.6,3.7l5,5c0.8,0.7,2.3,1.5,3.9,1.5h10.9v15.5h-14.1
		c-5.1,0-8-1.2-11.8-4.8l-7.2-7.2c-4.2-4.1-5.6-7.2-5.6-12.7V294.3l4.9-4.9H775.2z"/>
	<path fill="#FFFFFF" d="M882.1,289.4l4.8,4.8v138.6h-15.7l-1.2-6.9l-9.4,4.4c-4,1.9-7.2,2.5-11.4,2.5h-15.7
		c-5.2,0-8.1-1.3-11.8-4.8l-8-8c-3.6-3.6-4.9-6.6-4.9-11.8v-49.6c0-5.2,1.3-8.2,4.9-11.8l9-9c3.7-3.7,6.6-4.9,11.8-4.9h35v-43.4
		L882.1,289.4z M869.6,348.4h-31.8c-1.5,0-3,0.6-4,1.5l-6,5.9c-1.1,1.1-1.6,2.4-1.6,3.8V407c0,1.3,0.6,2.7,1.6,3.8l4.9,4.9
		c0.9,0.9,2.5,1.6,4,1.6h12.4c1.2,0,2.4-0.3,3.3-0.7l17.1-8.1V348.4z"/>
	<path fill="#FFFFFF" d="M929,289.4v78.2l44.6-34.8h8.5l7.9,7.9l-44.5,34.6l48.3,50l-7.8,7.6h-8.6l-43.5-46.6l-4.9,7.3v39.2h-17.3
		V294.3l4.9-4.9H929z"/>
	<path fill="#FFFFFF" d="M1028.6,298v19.8h-20V298H1028.6z M1027.2,332.7v100.1h-17.3V332.7H1027.2z"/>
	<path fill="#FFFFFF" d="M1075.9,309.8v23h21.8v15.6h-21.8v58.7c0,1.3,0.6,2.7,1.6,3.8l4.9,4.9c0.9,0.9,2.5,1.6,4,1.6h11.3V428
		l-5,4.7h-9.6c-5.2,0-8.1-1.2-11.8-4.8l-8-8c-3.6-3.6-4.9-6.6-4.9-11.8v-59.9h-15.4v-10.8l4.9-4.8h10.5v-23L1075.9,309.8z"/>
	<path fill="#FFFFFF" d="M1166.4,332.8c5.1,0,8.1,1.2,11.8,4.9l8,8c3.6,3.6,4.9,6.6,4.9,11.8v27l-4.9,4.9h-55.2V407
		c0,1.3,0.6,2.7,1.6,3.8l4.9,4.9c0.9,0.9,2.5,1.6,4,1.6h21.9c1.5,0,3-0.6,4-1.6l6.4-6.4l11.7,11.6l-7.1,7.1
		c-3.7,3.7-6.6,4.9-11.8,4.9h-28.3c-5.1,0-8.1-1.2-11.8-4.9l-8-8c-3.6-3.6-4.9-6.6-4.9-11.8v-50.6c0-5.2,1.2-8.2,4.9-11.8l8-8
		c3.7-3.7,6.6-4.9,11.8-4.9L1166.4,332.8z M1167.1,349.9c-0.9-0.9-2.5-1.6-4-1.6h-21.9c-1.5,0-3,0.6-4,1.6l-4.9,4.9
		c-1.1,1.1-1.6,2.4-1.6,3.8v15.3h42.8v-15.3c0-1.3-0.6-2.7-1.6-3.8L1167.1,349.9z"/>
</g>
</svg>
